<svg width="44" height="27" viewBox="0 0 44 27" fill="none" xmlns="http://www.w3.org/2000/svg">
<path d="M38.1551 10.58C39.0494 9.74102 39.5652 8.7549 39.5652 7.69936C39.5652 4.64514 35.2499 2.16919 29.9263 2.16919C27.5585 2.16919 25.3915 2.65988 23.7134 3.47245C22.0658 2.88038 20.0532 2.5309 17.8777 2.5309C12.308 2.5309 7.79269 4.81357 7.79269 7.62915C7.79269 8.09814 7.92062 8.55215 8.15528 8.98329C4.04088 9.61401 1.00977 11.7661 1.00977 14.3257C1.00977 17.3799 5.32503 19.8559 10.6486 19.8559C11.2463 19.8559 11.8305 19.8231 12.398 19.7632C13.1794 22.3673 17.1321 24.349 21.8939 24.349C26.0507 24.349 29.5927 22.8395 30.9457 20.7233C31.7047 20.8333 32.4991 20.8925 33.3176 20.8925C38.6412 20.8925 42.9564 18.4165 42.9564 15.3623C42.9564 13.3199 41.0253 11.5373 38.1547 10.5796L38.1551 10.58Z" fill="#C7D8EF"/>
<path d="M21.8944 24.7276C17.1945 24.7276 13.1673 22.8283 12.1268 20.1698C11.633 20.2128 11.1376 20.2345 10.6491 20.2345C5.11855 20.2345 0.619141 17.5838 0.619141 14.3256C0.619141 11.7368 3.46325 9.46364 7.59681 8.69368C7.46725 8.34341 7.40166 7.98683 7.40166 7.62906C7.40166 4.55788 12.0033 2.15214 17.8777 2.15214C19.9633 2.15214 21.9689 2.46612 23.691 3.06135C25.4555 2.24089 27.662 1.79004 29.9264 1.79004C35.457 1.79004 39.9564 4.44073 39.9564 7.69888C39.9564 8.65581 39.5734 9.58789 38.8421 10.4229C41.6369 11.5053 43.348 13.3639 43.348 15.3622C43.348 18.6204 38.8486 21.2711 33.3181 21.2711C32.5835 21.2711 31.851 21.2241 31.1368 21.1318C29.5895 23.2918 25.9236 24.7276 21.8944 24.7276ZM12.6821 19.3525L12.7737 19.6578C13.5115 22.1164 17.4324 23.9707 21.8944 23.9707C25.7916 23.9707 29.2957 22.5858 30.6137 20.5244L30.7494 20.3122L31.0044 20.3492C31.7585 20.4585 32.5375 20.5141 33.3185 20.5141C38.4176 20.5141 42.5662 18.203 42.5662 15.3626C42.5662 13.5671 40.8274 11.8717 38.0285 10.9377L37.4264 10.7369L37.8835 10.3078C38.728 9.51531 39.175 8.61321 39.175 7.69888C39.175 4.85845 35.0263 2.54738 29.9272 2.54738C27.7158 2.54738 25.5716 2.99626 23.8894 3.8108L23.7379 3.88456L23.5786 3.82737C21.9082 3.22662 19.9372 2.90948 17.879 2.90948C12.6242 2.90948 8.1847 5.07067 8.1847 7.62906C8.1847 8.02311 8.29144 8.41914 8.50207 8.80728L8.75629 9.2747L8.21688 9.35714C4.20392 9.97208 1.40136 12.0153 1.40136 14.3256C1.40136 17.166 5.54999 19.4771 10.6491 19.4771C11.213 19.4771 11.787 19.4467 12.3561 19.3868L12.6825 19.3525H12.6821Z" fill="#446596"/>
<path d="M22.5263 17.3454C25.1212 17.3454 27.2249 15.3087 27.2249 12.7962C27.2249 10.2838 25.1212 8.24707 22.5263 8.24707C19.9313 8.24707 17.8276 10.2838 17.8276 12.7962C17.8276 15.3087 19.9313 17.3454 22.5263 17.3454Z" fill="white"/>
<path d="M22.5258 17.7241C19.7196 17.7241 17.436 15.5136 17.436 12.7963C17.436 10.0789 19.7191 7.86841 22.5258 7.86841C25.3324 7.86841 27.6155 10.0789 27.6155 12.7963C27.6155 15.5136 25.3324 17.7241 22.5258 17.7241ZM22.5258 8.62575C20.1506 8.62575 18.2183 10.4966 18.2183 12.7963C18.2183 15.0959 20.1506 16.9668 22.5258 16.9668C24.901 16.9668 26.8333 15.0959 26.8333 12.7963C26.8333 10.4966 24.901 8.62575 22.5258 8.62575Z" fill="#446596"/>
</svg>
