<svg width="62" height="39" viewBox="0 0 62 39" fill="none" xmlns="http://www.w3.org/2000/svg">
<path d="M53.7641 15.282C55.0241 14.0701 55.7509 12.6458 55.7509 11.1211C55.7509 6.70943 49.6703 3.13306 42.1689 3.13306C38.8324 3.13306 35.7789 3.84184 33.4143 5.01554C31.0927 4.16033 28.2568 3.65553 25.1912 3.65553C17.3431 3.65553 10.9806 6.95272 10.9806 11.0197C10.9806 11.6971 11.1609 12.3529 11.4915 12.9756C5.69396 13.8867 1.42285 16.9953 1.42285 20.6925C1.42285 25.1041 7.50344 28.6805 15.0049 28.6805C15.847 28.6805 16.6703 28.6332 17.4699 28.5466C18.571 32.3081 24.1407 35.1706 30.8505 35.1706C36.7077 35.1706 41.6987 32.9901 43.6052 29.9334C44.6747 30.0923 45.7942 30.1778 46.9475 30.1778C54.4489 30.1778 60.5295 26.6014 60.5295 22.1898C60.5295 19.2396 57.8084 16.6648 53.7635 15.2815L53.7641 15.282Z" fill="#C7D8EF"/>
<path d="M30.8513 35.7176C24.2288 35.7176 18.554 32.9742 17.0879 29.1341C16.3921 29.1962 15.694 29.2275 15.0057 29.2275C7.21263 29.2275 0.872559 25.3987 0.872559 20.6925C0.872559 16.9532 4.88017 13.6697 10.7047 12.5575C10.5222 12.0515 10.4297 11.5365 10.4297 11.0197C10.4297 6.58357 16.9139 3.10861 25.1915 3.10861C28.1302 3.10861 30.9563 3.56214 33.3829 4.4219C35.8693 3.23681 38.9784 2.58557 42.1691 2.58557C49.9622 2.58557 56.3023 6.41435 56.3023 11.1206C56.3023 12.5028 55.7626 13.8491 54.7322 15.0553C58.6703 16.6187 61.0814 19.3034 61.0814 22.1898C61.0814 26.896 54.7414 30.7248 46.9483 30.7248C45.9133 30.7248 44.8811 30.657 43.8747 30.5237C41.6944 33.6437 36.5289 35.7176 30.8513 35.7176ZM17.8703 27.9535L17.9995 28.3945C19.0391 31.9458 24.564 34.6243 30.8513 34.6243C36.3429 34.6243 41.2805 32.6238 43.1376 29.6463L43.3288 29.3397L43.6881 29.3933C44.7508 29.5511 45.8484 29.6315 46.9489 29.6315C54.134 29.6315 59.9798 26.2932 59.9798 22.1904C59.9798 19.5969 57.5296 17.148 53.5858 15.7989L52.7373 15.5088L53.3814 14.8889C54.5714 13.7443 55.2012 12.4413 55.2012 11.1206C55.2012 7.01773 49.3554 3.67951 42.1703 3.67951C39.0542 3.67951 36.0329 4.32789 33.6625 5.50445L33.449 5.61099L33.2245 5.52838C30.8708 4.66063 28.0934 4.20255 25.1932 4.20255C17.7888 4.20255 11.5331 7.32426 11.5331 11.0197C11.5331 11.5889 11.6835 12.1609 11.9803 12.7216L12.3385 13.3967L11.5785 13.5158C5.92384 14.4041 1.97478 17.3554 1.97478 20.6925C1.97478 24.7953 7.82058 28.1336 15.0057 28.1336C15.8002 28.1336 16.6091 28.0897 17.4111 28.0031L17.8709 27.9535H17.8703Z" fill="#446596"/>
<path d="M31.7419 25.0547C35.3985 25.0547 38.3627 22.1127 38.3627 18.4836C38.3627 14.8545 35.3985 11.9126 31.7419 11.9126C28.0853 11.9126 25.1211 14.8545 25.1211 18.4836C25.1211 22.1127 28.0853 25.0547 31.7419 25.0547Z" fill="white"/>
<path d="M31.7412 25.6016C27.787 25.6016 24.5693 22.4087 24.5693 18.4836C24.5693 14.5585 27.7864 11.3656 31.7412 11.3656C35.696 11.3656 38.9132 14.5585 38.9132 18.4836C38.9132 22.4087 35.696 25.6016 31.7412 25.6016ZM31.7412 12.4595C28.3944 12.4595 25.6716 15.1619 25.6716 18.4836C25.6716 21.8053 28.3944 24.5077 31.7412 24.5077C35.0881 24.5077 37.8109 21.8053 37.8109 18.4836C37.8109 15.1619 35.0881 12.4595 31.7412 12.4595Z" fill="#446596"/>
</svg>
